<?xml version="1.0" encoding="UTF-8" standalone="no"?>
<!-- Created with Inkscape (http://www.inkscape.org/) -->

<svg
   xmlns:dc="http://purl.org/dc/elements/1.1/"
   xmlns:cc="http://creativecommons.org/ns#"
   xmlns:rdf="http://www.w3.org/1999/02/22-rdf-syntax-ns#"
   xmlns:svg="http://www.w3.org/2000/svg"
   xmlns="http://www.w3.org/2000/svg"
   xmlns:xlink="http://www.w3.org/1999/xlink"
   xmlns:sodipodi="http://sodipodi.sourceforge.net/DTD/sodipodi-0.dtd"
   xmlns:inkscape="http://www.inkscape.org/namespaces/inkscape"
   width="100mm"
   height="100mm"
   viewBox="0 0 100 100"
   version="1.1"
   id="svg8"
   sodipodi:docname="logo.svg"
   inkscape:version="0.92.3 (2405546, 2018-03-11)">
  <defs
     id="defs2">
    <linearGradient
       inkscape:collect="always"
       id="linearGradient920">
      <stop
         style="stop-color:#a8005e;stop-opacity:1"
         offset="0"
         id="stop916" />
      <stop
         style="stop-color:#007dce;stop-opacity:1"
         offset="1"
         id="stop918" />
    </linearGradient>
    <linearGradient
       inkscape:collect="always"
       xlink:href="#linearGradient920"
       id="linearGradient922"
       x1="1.1906252"
       y1="267.16821"
       x2="78.647392"
       y2="236.07968"
       gradientUnits="userSpaceOnUse"
       gradientTransform="translate(2.9765624,0.92604167)" />
  </defs>
  <sodipodi:namedview
     id="base"
     pagecolor="#ffffff"
     bordercolor="#666666"
     borderopacity="1.0"
     inkscape:pageopacity="0.0"
     inkscape:pageshadow="2"
     inkscape:zoom="4"
     inkscape:cx="39.95546"
     inkscape:cy="182.70698"
     inkscape:document-units="mm"
     inkscape:current-layer="g903"
     showgrid="false"
     inkscape:window-width="3840"
     inkscape:window-height="2035"
     inkscape:window-x="-13"
     inkscape:window-y="-13"
     inkscape:window-maximized="1" />
  <metadata
     id="metadata5">
    <rdf:RDF>
      <cc:Work
         rdf:about="">
        <dc:format>image/svg+xml</dc:format>
        <dc:type
           rdf:resource="http://purl.org/dc/dcmitype/StillImage" />
        <dc:title></dc:title>
      </cc:Work>
    </rdf:RDF>
  </metadata>
  <g
     inkscape:label="Layer 1"
     inkscape:groupmode="layer"
     id="layer1"
     transform="translate(0,-197)">
    <g
       id="g903">
      <path
         style="color:#000000;font-style:normal;font-variant:normal;font-weight:normal;font-stretch:normal;font-size:medium;line-height:normal;font-family:sans-serif;font-variant-ligatures:normal;font-variant-position:normal;font-variant-caps:normal;font-variant-numeric:normal;font-variant-alternates:normal;font-feature-settings:normal;text-indent:0;text-align:start;text-decoration:none;text-decoration-line:none;text-decoration-style:solid;text-decoration-color:#000000;letter-spacing:normal;word-spacing:normal;text-transform:none;writing-mode:lr-tb;direction:ltr;text-orientation:mixed;dominant-baseline:auto;baseline-shift:baseline;text-anchor:start;white-space:normal;shape-padding:0;clip-rule:nonzero;display:inline;overflow:visible;visibility:visible;opacity:1;isolation:auto;mix-blend-mode:normal;color-interpolation:sRGB;color-interpolation-filters:linearRGB;solid-color:#000000;solid-opacity:1;vector-effect:none;fill:url(#linearGradient922);fill-opacity:1;fill-rule:nonzero;stroke:none;stroke-width:2.11666656;stroke-linecap:butt;stroke-linejoin:miter;stroke-miterlimit:4;stroke-dasharray:none;stroke-dashoffset:0;stroke-opacity:1;color-rendering:auto;image-rendering:auto;shape-rendering:auto;text-rendering:auto;enable-background:accumulate"
         d="m 50.502343,203.61768 c -4.72798,0 -8.583462,3.85548 -8.583457,8.58346 -2e-6,3.07523 1.645198,5.75937 4.086575,7.27552 l -8.463569,18.47743 c -0.816004,-0.25871 -1.66752,-0.43667 -2.567284,-0.43667 -4.727977,0 -8.583459,3.85548 -8.583455,8.58346 -3e-6,3.07522 1.645196,5.75937 4.086573,7.27552 l -8.463567,18.47743 c -0.816006,-0.25871 -1.667521,-0.43667 -2.567285,-0.43667 -4.727977,0 -8.583459,3.85548 -8.583455,8.58345 -6e-6,4.72798 3.855476,8.58347 8.583455,8.58346 4.727979,10e-6 8.583461,-3.85548 8.583456,-8.58346 2e-6,-3.07522 -1.645197,-5.75937 -4.086573,-7.27552 l 8.463568,-18.47742 c 0.816004,0.2587 1.66752,0.43666 2.567283,0.43666 4.72798,1e-5 8.583462,-3.85547 8.583457,-8.58345 2e-6,-3.07523 -1.645198,-5.75938 -4.086574,-7.27553 l 8.463568,-18.47742 c 0.816007,0.2587 1.66752,0.43666 2.567284,0.43666 0.899763,0 1.751277,-0.17796 2.567283,-0.43666 l 8.463569,18.47742 c -2.441377,1.51615 -4.086577,4.2003 -4.086574,7.27553 -6e-6,4.72798 3.855476,8.58346 8.583456,8.58345 0.899763,0 1.751277,-0.17796 2.567284,-0.43666 l 8.463568,18.47742 c -0.739415,0.45919 -1.391095,1.02944 -1.959054,1.68414 L 58.138569,263.0647 c 0.585865,-1.15961 0.94723,-2.44994 0.94723,-3.83388 3e-6,-4.72797 -3.855479,-8.58346 -8.583456,-8.58345 -4.727977,-1e-5 -8.583459,3.85548 -8.583457,8.58345 -5e-6,4.72798 3.855477,8.58346 8.583457,8.58346 2.584283,0 4.880125,-1.17595 6.455936,-2.99258 L 73.9221,276.16623 c -0.58606,1.15976 -0.947745,2.4502 -0.947745,3.83438 -6e-6,4.72798 3.855476,8.58347 8.583456,8.58346 4.72798,10e-6 8.583462,-3.85548 8.583456,-8.58346 3e-6,-4.72797 -3.855479,-8.58345 -8.583456,-8.58345 -0.899763,0 -1.75128,0.17796 -2.567284,0.43667 L 70.526959,253.3764 c 2.441376,-1.51615 4.086577,-4.20029 4.086574,-7.27552 3e-6,-4.72798 -3.855479,-8.58346 -8.583456,-8.58346 -0.899763,0 -1.75128,0.17796 -2.567284,0.43667 l -8.463568,-18.47743 c 2.441376,-1.51615 4.086577,-4.20029 4.086574,-7.27552 5e-6,-4.72798 -3.855477,-8.58346 -8.583456,-8.58346 z m 0,2.11667 c 3.584045,-1e-5 6.466792,2.88274 6.466789,6.46679 3e-6,3.58404 -2.882744,6.46679 -6.466789,6.46679 -3.584046,0 -6.466793,-2.88275 -6.46679,-6.46679 -3e-6,-3.58405 2.882744,-6.4668 6.46679,-6.46679 z m -15.527735,33.89974 c 3.584046,-10e-6 6.466793,2.88274 6.46679,6.46679 3e-6,3.58404 -2.882744,6.46679 -6.46679,6.46678 -3.584045,1e-5 -6.466792,-2.88274 -6.466788,-6.46678 -3e-6,-3.58405 2.882743,-6.4668 6.466788,-6.46679 z m 31.055469,0 c 3.584046,-10e-6 6.466792,2.88274 6.466789,6.46679 3e-6,3.58404 -2.882743,6.46679 -6.466789,6.46678 -3.584046,1e-5 -6.466792,-2.88274 -6.46679,-6.46678 -2e-6,-3.58405 2.882744,-6.4668 6.46679,-6.46679 z m -15.527734,13.12995 c 3.584045,-1e-5 6.466792,2.88274 6.466789,6.46678 3e-6,3.58405 -2.882744,6.4668 -6.466789,6.46679 -3.584046,10e-6 -6.466793,-2.88274 -6.46679,-6.46679 -3e-6,-3.58404 2.882744,-6.46679 6.46679,-6.46678 z m -31.055469,20.76979 c 3.584045,-1e-5 6.466792,2.88274 6.466789,6.46678 4e-6,3.58405 -2.882743,6.4668 -6.466789,6.46679 -3.584045,10e-6 -6.466793,-2.88274 -6.466788,-6.46679 -3e-6,-3.58404 2.882744,-6.46679 6.466788,-6.46678 z m 62.110937,0 c 3.584046,-1e-5 6.466792,2.88274 6.46679,6.46678 2e-6,3.58405 -2.882744,6.4668 -6.46679,6.46679 -3.584046,10e-6 -6.466792,-2.88274 -6.46679,-6.46679 -2e-6,-3.58404 2.882744,-6.46679 6.46679,-6.46678 z"
         id="path3747"
         inkscape:connector-curvature="0" />
    </g>
  </g>
</svg>
