<?xml version="1.0" standalone="no"?>
<!DOCTYPE svg PUBLIC "-//W3C//DTD SVG 20010904//EN"
 "http://www.w3.org/TR/2001/REC-SVG-20010904/DTD/svg10.dtd">
<svg version="1.0" xmlns="http://www.w3.org/2000/svg"
 width="700.000000pt" height="700.000000pt" viewBox="0 0 700.000000 700.000000"
 preserveAspectRatio="xMidYMid meet">
<metadata>
Created by potrace 1.11, written by Peter Selinger 2001-2013
</metadata>
<g transform="translate(0.000000,700.000000) scale(0.100000,-0.100000)"
fill="#000000" stroke="none">
<path d="M3392 6937 c-267 -29 -508 -225 -596 -484 -69 -203 -46 -418 64 -604
39 -66 128 -166 182 -205 26 -18 27 -20 13 -49 -22 -46 -75 -163 -158 -345
-41 -91 -88 -194 -105 -230 -67 -145 -138 -303 -141 -312 -1 -4 -20 -44 -42
-88 -21 -44 -39 -82 -39 -84 0 -2 -22 -50 -49 -107 -26 -57 -59 -128 -71 -157
-17 -39 -27 -51 -39 -47 -83 26 -248 26 -343 1 -317 -86 -534 -355 -543 -676
-7 -221 62 -390 222 -547 l84 -82 -41 -87 c-22 -47 -40 -87 -40 -89 0 -2 -16
-39 -36 -82 -20 -43 -77 -166 -126 -273 -50 -107 -103 -222 -118 -255 -15 -33
-48 -105 -73 -160 -25 -55 -65 -143 -89 -195 -24 -52 -60 -130 -79 -173 l-34
-79 -35 7 c-68 14 -235 14 -295 1 -400 -88 -651 -478 -560 -871 61 -263 264
-471 528 -541 128 -34 313 -22 441 27 137 54 285 181 361 310 178 303 109 694
-163 921 -26 21 -46 43 -45 47 1 4 52 118 114 252 61 134 135 296 164 359 29
63 69 151 90 195 36 78 82 177 109 239 8 17 29 63 46 101 18 39 44 95 57 125
61 134 51 122 97 113 23 -4 95 -8 161 -7 108 0 129 3 208 31 108 38 180 81
263 156 104 95 195 254 220 382 10 51 11 239 2 287 -32 161 -125 311 -263 425
l-39 32 27 55 c15 30 27 57 27 60 0 5 13 32 129 279 28 60 51 110 51 112 0 4
12 31 155 340 54 116 116 253 140 305 113 252 113 251 137 245 99 -23 205 -26
288 -6 25 5 48 7 52 3 4 -4 37 -72 73 -152 37 -80 80 -174 97 -210 16 -36 49
-108 73 -160 42 -93 66 -147 137 -300 19 -41 86 -187 148 -323 l114 -249 -30
-23 c-121 -95 -199 -209 -251 -364 -21 -63 -26 -96 -27 -191 -1 -108 1 -132
19 -205 35 -142 156 -315 280 -402 161 -112 368 -159 542 -123 30 7 58 8 62 3
4 -4 61 -125 126 -268 65 -143 134 -294 153 -335 19 -41 92 -201 162 -355 71
-154 144 -314 163 -356 l35 -77 -50 -43 c-28 -24 -54 -45 -57 -47 -4 -1 -53
29 -109 68 -57 38 -107 70 -112 70 -4 0 -10 3 -12 8 -1 4 -238 164 -526 357
-452 301 -523 352 -518 370 3 11 15 54 27 95 27 95 29 245 5 345 -58 244 -251
450 -489 524 -405 125 -830 -120 -921 -530 -70 -312 66 -624 342 -787 268
-157 625 -118 851 94 l34 31 621 -415 c341 -229 630 -422 642 -431 l21 -15
-23 -68 c-141 -417 135 -865 576 -937 76 -13 213 -6 287 13 238 63 431 241
508 471 32 93 39 138 38 240 -2 281 -164 529 -426 650 -104 48 -190 65 -312
61 -55 -2 -116 -7 -135 -10 l-35 -7 -140 308 c-76 169 -163 359 -192 421 -29
62 -53 115 -53 116 0 2 -44 99 -99 217 -54 118 -110 240 -125 272 l-26 59 79
76 c159 155 232 325 229 537 -4 262 -154 506 -388 629 -134 70 -311 98 -454
72 l-63 -12 -39 85 c-21 47 -58 129 -82 181 -24 52 -76 165 -114 249 -39 85
-74 162 -79 170 -4 9 -31 68 -60 131 -28 63 -65 144 -81 180 -31 67 -44 95
-133 289 l-52 114 59 50 c109 90 200 239 234 384 77 321 -95 675 -394 815
-137 64 -248 82 -400 65z m183 -257 c69 -14 64 -13 120 -40 69 -34 175 -142
208 -211 67 -143 63 -307 -12 -439 -65 -116 -176 -200 -302 -229 -187 -44
-401 40 -499 194 -72 114 -98 247 -71 367 56 248 308 410 556 358z m-1177
-2711 c148 -51 275 -190 307 -336 74 -346 -235 -654 -570 -568 -224 58 -371
255 -359 483 16 310 328 522 622 421z m2450 5 c75 -19 161 -73 219 -137 167
-182 155 -482 -27 -656 -182 -174 -477 -171 -655 7 -212 212 -179 561 70 726
119 79 244 98 393 60z m-1270 -1035 c162 -33 309 -168 355 -326 16 -53 18
-209 4 -263 -25 -96 -115 -214 -207 -272 -142 -90 -366 -91 -497 -1 -66 46
-77 56 -120 108 -76 93 -109 202 -100 329 7 92 26 148 75 224 103 159 301 240
490 201z m-2414 -1668 c190 -67 316 -242 316 -441 0 -366 -387 -591 -708 -411
-43 24 -152 125 -152 141 0 5 -6 15 -13 22 -27 27 -59 133 -64 213 -15 232
134 435 360 491 70 17 190 10 261 -15z m4927 6 c115 -34 231 -134 284 -245
131 -276 -24 -597 -324 -666 -104 -24 -202 -11 -308 39 -256 123 -340 440
-183 684 63 97 200 187 310 204 52 8 167 -1 221 -16z"/>
</g>
</svg>
